# xmcd
#
# Track frame offsets: 
#        150
#        19685
#        38337
#        51039
#        71096
#        94595
#        126286
#        144027
#        157670
#        179813
#        196312
#        218203
#
# Disc length: 3113 seconds
#
# Revision: 4
# Processed by: cddbd v1.5.2PL0 Copyright (c) Steve Scherf et al.
# Submitted via: ExactAudioCopy v0.95a5
#
DISCID=9b0c270c
DTITLE=Vargas Blues Band - Gipsy Boogie
DYEAR=1996
DGENRE=Blues
TTITLE0=Body Shock
TTITLE1=Illegally
TTITLE2=Havana Getaway
TTITLE3=Chill Out (S calo)
TTITLE4=Blues For My Baby
TTITLE5=Back Alley Blues
TTITLE6=Gipsy Boogie
TTITLE7=Scratch Me Back
TTITLE8=A Real Mother For Ya
TTITLE9=Born Under A Bad Sign
TTITLE10=I Need Your Love So Bad
TTITLE11=Blues Hondo
EXTD=
EXTT0=
EXTT1=
EXTT2=
EXTT3=
EXTT4=
EXTT5=
EXTT6=
EXTT7=
EXTT8=
EXTT9=
EXTT10=
EXTT11=
PLAYORDER=
